<?xml version="1.0" encoding="UTF-8"?>
<svg version="1.1" xmlns="http://www.w3.org/2000/svg" width="1200" height="484">
<path d="M0 0 C3.39219697 2.8825953 6.57261269 5.90052998 9.57421875 9.1875 C9.6 8.5584375 9.62578125 7.929375 9.65234375 7.28125 C10.24433065 -1.65237052 12.38918241 -7.06082745 19.01171875 -13.1875 C26.70217684 -19.90160428 35.02569309 -19.96423304 44.78515625 -19.91015625 C45.75329254 -19.9087413 46.72142883 -19.90732635 47.71890259 -19.90586853 C50.79570674 -19.90029365 53.87243678 -19.88774577 56.94921875 -19.875 C59.04166561 -19.86998175 61.13411362 -19.86541941 63.2265625 -19.86132812 C68.34247625 -19.85033245 73.45833496 -19.83308515 78.57421875 -19.8125 C78.66597111 15.13520512 78.73635705 50.08288253 78.77848007 85.03068228 C78.78348231 89.1658001 78.78865965 93.30091769 78.79394531 97.43603516 C78.79499455 98.25918924 78.7960438 99.08234332 78.79712483 99.93044147 C78.81448348 113.22184542 78.84599585 126.51317947 78.88282993 139.80454209 C78.92036624 153.46422421 78.94248128 167.12386996 78.95057273 180.78360152 C78.95603433 189.19802312 78.97322166 197.61224709 79.00588462 206.02660778 C79.02718961 211.81326153 79.03338309 217.59981459 79.02822426 223.38650462 C79.02568696 226.71468122 79.0315575 230.04224127 79.05104065 233.37040138 C79.22166827 264.04522569 73.99103194 292.2656545 53.57421875 316.1875 C52.93226563 316.97382813 52.2903125 317.76015625 51.62890625 318.5703125 C28.25470141 346.08459791 -9.15396449 358.74130118 -44.2265625 361.875 C-84.41143392 364.70571338 -128.69187378 359.20307649 -160.42578125 332.1875 C-175.53747622 318.86894999 -187.6334698 302.03609566 -191.51171875 281.92700195 C-191.68493652 281.03648636 -191.8581543 280.14597076 -192.03662109 279.22846985 C-192.16504395 278.5549498 -192.2934668 277.88142975 -192.42578125 277.1875 C-183.42024563 276.95535108 -174.41574593 276.77790081 -165.40786648 276.66937828 C-161.2245275 276.61727893 -157.0432413 276.54668154 -152.86108398 276.43310547 C-148.82140678 276.3240909 -144.78369739 276.26458924 -140.74266243 276.23872757 C-139.20466181 276.22031091 -137.66676394 276.18434105 -136.12960625 276.13019943 C-124.0662513 275.72237546 -124.0662513 275.72237546 -119.96438599 279.38580322 C-118.19055638 281.91503351 -116.79847758 284.42612973 -115.42578125 287.1875 C-105.27081582 298.6786451 -91.72006473 305.7463973 -76.42578125 307.1875 C-52.76128731 308.50622887 -28.64303875 307.07081985 -9.79296875 290.93359375 C2.66109746 279.05576046 8.67225476 264.3381783 9.57421875 247.1875 C9.78859871 237.85518763 9.70036748 228.52056545 9.57421875 219.1875 C9.12981445 219.71424316 8.68541016 220.24098633 8.22753906 220.78369141 C-6.62612593 238.12091462 -30.77175095 250.42713496 -53.42578125 253.1875 C-54.38742188 253.30996094 -55.3490625 253.43242187 -56.33984375 253.55859375 C-91.45371794 257.01872004 -128.65222439 249.56015001 -156.72265625 227.43359375 C-185.02204254 203.91893028 -201.77504209 172.98254264 -205.42578125 136.1875 C-205.58474118 133.27988802 -205.63505666 130.37639449 -205.6640625 127.46484375 C-205.67385635 126.65021164 -205.68365021 125.83557953 -205.69374084 124.9962616 C-206.09534009 82.93730016 -197.82228634 46.45143955 -169.42578125 14.1875 C-168.89984375 13.57777344 -168.37390625 12.96804687 -167.83203125 12.33984375 C-159.28740107 3.11949026 -147.69163724 -4.42517083 -136.42578125 -9.8125 C-135.39582031 -10.31265625 -134.36585938 -10.8128125 -133.3046875 -11.328125 C-91.17118878 -30.61698684 -37.23405269 -29.25895546 0 0 Z M-117.55078125 58.3125 C-130.83598571 73.95951859 -136.85192096 93.62563673 -136.73828125 113.9375 C-136.7333667 114.98591064 -136.72845215 116.03432129 -136.72338867 117.11450195 C-136.39602743 138.91676046 -128.98845095 159.65929832 -113.50390625 175.359375 C-99.25988196 188.94002946 -80.27990526 194.57595851 -60.90625 194.49023438 C-40.81857087 194.00855823 -22.83577321 185.63492029 -9 171.20703125 C3.54047037 156.49719271 9.52108462 138.30846655 10.57421875 119.1875 C10.61546875 118.51074219 10.65671875 117.83398438 10.69921875 117.13671875 C11.35833322 95.26235718 4.47092526 74.46239787 -9.80078125 57.875 C-23.51789448 43.45803406 -40.00774541 35.44709292 -60.00708008 34.78710938 C-82.50067945 34.48148435 -101.81065896 41.840279 -117.55078125 58.3125 Z " fill="#00004D" transform="translate(205.42578125,121.8125)"/>
<path d="M0 0 C0.969375 0.47050781 1.93875 0.94101563 2.9375 1.42578125 C35.66329929 18.31191315 58.58042411 48.32020023 69.75 83 C79.57203411 114.97076034 79.0918293 151.45095887 68 183 C67.66959717 183.95181152 67.66959717 183.95181152 67.33251953 184.92285156 C58.60435134 209.55441409 42.82995765 231.20419999 22 247 C21.22269531 247.59296875 20.44539062 248.1859375 19.64453125 248.796875 C-15.22840372 274.26521612 -59.31025595 281.36792222 -101.50756836 274.85180664 C-131.34761264 269.6637352 -157.00624871 256.75773882 -179 236 C-179.74894531 235.31550781 -180.49789062 234.63101563 -181.26953125 233.92578125 C-207.68726589 208.89601865 -219.4368409 171.45702358 -221 136 C-221.04253906 135.04867187 -221.08507812 134.09734375 -221.12890625 133.1171875 C-221.97658511 93.44581681 -208.65788636 55.4968662 -181.16650391 26.70019531 C-134.79404661 -20.43755726 -58.39319882 -28.47971862 0 0 Z M-122 61 C-122.58007812 61.42410156 -123.16015625 61.84820312 -123.7578125 62.28515625 C-139.86754752 74.53604776 -147.66195616 96.6312585 -150.5859375 115.8515625 C-153.59852575 142.15279542 -148.55102028 169.25044952 -131.94580078 190.34423828 C-118.81298307 206.41919556 -101.69354926 215.14290191 -81.1550293 217.55078125 C-61.50712146 219.42670037 -40.229152 214.98438009 -24.60546875 202.38671875 C-7.16129783 187.3458594 2.96171275 167.75673574 6 145 C7.99996645 115.31559641 3.26869231 89.63819325 -16.08203125 66.51171875 C-28.88618902 52.75734519 -47.13765287 44.38044776 -65.8828125 43.6640625 C-87.51755527 43.3512876 -105.00372562 46.68212684 -122 61 Z " fill="#00004D" transform="translate(533,114)"/>
<path d="M0 0 C1.08116592 0.00323273 1.08116592 0.00323273 2.18417358 0.00653076 C31.62276161 0.14723931 60.57175582 6.35822829 83.875 25.3125 C84.71417969 25.97636719 85.55335938 26.64023438 86.41796875 27.32421875 C102.713906 40.99259403 112.42194164 61.30599549 114.875 82.3125 C114.875 84.6225 114.875 86.9325 114.875 89.3125 C93.425 89.3125 71.975 89.3125 49.875 89.3125 C47.4 82.8775 47.4 82.8775 44.875 76.3125 C39.38166491 66.24138567 30.99593669 59.57243555 20.01171875 56.0625 C4.93167476 52.45681078 -9.647325 51.9992124 -23.625 59.67578125 C-29.18535262 63.3160746 -32.11084855 67.95202173 -34.125 74.3125 C-35.04456184 81.16435711 -34.18600567 86.65653742 -30.125 92.3125 C-19.76886296 105.29774923 2.22249689 107.90172456 17.19824219 111.4375 C75.62222468 125.3413216 75.62222468 125.3413216 93.875 141.3125 C94.535 141.83070313 95.195 142.34890625 95.875 142.8828125 C110.06226281 154.35454454 117.54385285 171.05995692 119.6640625 188.91308594 C121.83873904 213.65003155 118.59899286 236.98848342 102.34765625 256.4765625 C93.25911706 266.9003847 83.19697706 274.05565451 70.875 280.3125 C70.03582031 280.74433594 69.19664062 281.17617188 68.33203125 281.62109375 C56.64400404 287.29712512 43.74407721 290.72691169 30.875 292.3125 C30.05773437 292.42335938 29.24046875 292.53421875 28.3984375 292.6484375 C-6.039613 296.5933535 -41.89327325 290.04406876 -70.125 269.3125 C-73.61861332 266.46116656 -76.88973408 263.45127553 -80.125 260.3125 C-80.79789063 259.71308594 -81.47078125 259.11367188 -82.1640625 258.49609375 C-94.85599492 246.79018795 -102.6497265 230.6739266 -106.5 214.0625 C-106.75209229 212.98198364 -106.75209229 212.98198364 -107.00927734 211.87963867 C-108.23041566 206.07956173 -108.125 201.50031302 -108.125 195.3125 C-86.015 195.3125 -63.905 195.3125 -41.125 195.3125 C-40.135 199.9325 -39.145 204.5525 -38.125 209.3125 C-34.01743388 219.58141529 -27.15978241 226.62867497 -17.125 231.3125 C-0.28368595 237.51406623 17.98898327 238.9536943 34.875 232.09375 C42.43600783 228.39543095 47.63373363 223.56622116 50.96484375 215.7578125 C53.68009894 207.52445806 53.6111697 200.20306736 49.875 192.3125 C44.395205 184.57701352 36.29232965 180.61127984 27.5625 177.39453125 C26.87005188 177.13763519 26.17760376 176.88073914 25.46417236 176.61605835 C18.37410279 174.04254681 11.16211583 171.99716437 3.88095093 170.04333496 C1.55366694 169.41834353 -0.77065835 168.78323679 -3.09448242 168.14550781 C-6.25870119 167.2775385 -9.42360957 166.41218766 -12.58935547 165.54980469 C-74.90463323 148.56238295 -74.90463323 148.56238295 -90.63671875 124.046875 C-101.61841467 103.87053079 -103.77159918 81.49070882 -98.125 59.3125 C-96.75740603 55.13457556 -95.08116668 51.24638892 -93.125 47.3125 C-92.66738281 46.35085937 -92.20976563 45.38921875 -91.73828125 44.3984375 C-84.55084142 30.67531562 -72.72701586 20.39550094 -59.125 13.3125 C-58.08859375 12.77238281 -57.0521875 12.23226562 -55.984375 11.67578125 C-38.01750582 2.89148683 -19.91635471 -0.10779775 0 0 Z " fill="#00004D" transform="translate(730.125,97.6875)"/>
<path d="M0 0 C4.49825874 -0.07501586 8.99617127 -0.12900383 13.49487305 -0.16479492 C15.02032832 -0.17973934 16.54574172 -0.20010247 18.07104492 -0.22631836 C34.2164429 -0.4965564 45.48669784 1.69722828 57.48098588 13.12910962 C60.39935085 15.97081843 63.27841112 18.8507579 66.15478516 21.73486328 C67.45761047 23.03033877 68.76105368 24.32519311 70.06506348 25.61947632 C73.58394274 29.11624463 77.0932284 32.62248875 80.60011721 36.13127756 C83.53049944 39.0617798 86.46521692 41.98792209 89.39981687 44.91419971 C96.31704551 51.81223767 103.22611887 58.71837048 110.13037109 65.62939453 C117.258074 72.76375886 124.40046869 79.88317415 131.54997408 86.99568379 C137.69153623 93.10661401 143.82345729 99.22710218 149.94777143 105.35531795 C153.60452115 109.01413921 157.26498046 112.66904992 160.9349556 116.31460953 C164.37869487 119.7361877 167.8103009 123.16947681 171.23275757 126.61233902 C172.49305429 127.87606293 173.75766805 129.13549771 175.02677536 130.39037323 C176.75280386 132.09836731 178.46284956 133.82088652 180.16958618 135.54812622 C180.67996512 136.04598731 181.19034406 136.5438484 181.71618903 137.05679619 C184.96397439 140.38935718 184.96397439 140.38935718 185.1179924 143 C183.49078202 145.91095071 181.29297579 148.1263206 178.9425354 150.45187378 C178.41041329 150.990087 177.87829118 151.52830021 177.33004415 152.08282292 C175.54175246 153.88778778 173.74288782 155.681827 171.94384766 157.47607422 C170.66046147 158.76679864 169.37770057 160.05814505 168.09552002 161.35006714 C164.60632525 164.86152349 161.10749966 168.36323146 157.60621309 171.86262655 C154.68159239 174.78712766 151.76132434 177.71595642 148.84093511 180.64468205 C141.94512372 187.55974795 135.04114404 194.46658513 128.13232422 201.36865234 C121.01696519 208.47738402 113.91644688 215.60069621 106.8230015 222.73128879 C100.7265635 228.85848588 94.62043301 234.97590711 88.50665319 241.08580029 C84.8581579 244.7322328 81.21349528 248.38229597 77.57832718 252.04201889 C74.1536123 255.48909768 70.71689778 258.92375694 67.27088165 262.3495369 C66.0133439 263.60368056 64.75999045 264.86203729 63.51135635 266.12504578 C51.08344784 278.6860065 40.43152703 284.95021359 22.36328125 285.1953125 C19.67900811 285.18218647 16.99641941 285.15904277 14.3125 285.125 C12.9173242 285.11494059 11.5221413 285.10582002 10.12695312 285.09765625 C6.7511163 285.07429406 3.37565382 285.04153668 0 285 C-0.4358705 256.46931628 10.63032469 231.25635284 28 209 C29.19302734 207.47052734 29.19302734 207.47052734 30.41015625 205.91015625 C41.70810215 192.06275115 54.62786406 178.66319764 69 168 C69.63164063 167.52433594 70.26328125 167.04867187 70.9140625 166.55859375 C80.09212225 159.66658209 89.46312999 153.28095024 99.33813477 147.42626953 C100.05155029 147.0032959 100.76496582 146.58032227 101.5 146.14453125 C102.1290625 145.77690674 102.758125 145.40928223 103.40625 145.03051758 C105.17219105 143.96770621 105.17219105 143.96770621 107 142 C105.89785156 141.34515625 104.79570313 140.6903125 103.66015625 140.015625 C87.79254204 130.50599114 72.86454693 120.26407574 59 108 C58.15308594 107.26394531 57.30617188 106.52789062 56.43359375 105.76953125 C29.70108698 82.21231421 3.61834335 49.88752653 0 13 C-0.04143408 10.72560053 -0.05345043 8.4505126 -0.0390625 6.17578125 C-0.03342285 5.01602783 -0.0277832 3.85627441 -0.02197266 2.66137695 C-0.01472168 1.78312256 -0.0074707 0.90486816 0 0 Z " fill="#00BF00" transform="translate(1015,102)"/>
<path d="M0 0 C0 94.05 0 188.1 0 285 C-22.77 285 -45.54 285 -69 285 C-69.08824502 253.33870556 -69.16207728 221.67753015 -69.20426132 190.01615105 C-69.20926392 186.27500869 -69.21444123 182.53386658 -69.21972656 178.79272461 C-69.2207758 178.04795633 -69.22182505 177.30318805 -69.22290608 176.53585104 C-69.24029326 164.48963626 -69.2718216 152.44349813 -69.30861118 140.39732876 C-69.34606766 128.0292947 -69.36824578 115.66130068 -69.37635398 103.29321223 C-69.38183202 95.66645399 -69.39910993 88.03991244 -69.43166587 80.41322092 C-69.45538514 74.55697547 -69.45780798 68.70084016 -69.45243073 62.84454536 C-69.45352879 60.44805444 -69.46145364 58.05155512 -69.4768219 55.65511322 C-69.49682453 52.37436683 -69.49190114 49.09453558 -69.48101807 45.81376648 C-69.49266943 44.87307066 -69.5043208 43.93237484 -69.51632524 42.96317309 C-69.41345112 31.43144534 -64.84029645 21.19900947 -56.96484375 12.83984375 C-40.38282859 -2.80632576 -23.27920755 0 0 0 Z " fill="#00004D" transform="translate(948,102)"/>
<path d="M0 0 C9.83032357 6.84011108 16.084394 15.89832004 18.40234375 27.73046875 C19.81289162 40.23084124 16.87906683 51.68942813 9.20703125 61.78125 C2.22892216 69.27075715 -7.13324403 74.45971918 -17.4296875 75.015625 C-30.88663711 75.28609417 -41.13544379 73.28315385 -51.1953125 63.6796875 C-60.00382203 54.45255573 -62.82105551 44.82924426 -62.66601562 32.31494141 C-62.19780778 20.48771243 -57.646943 11.83861643 -49.12890625 3.70703125 C-35.44451901 -7.82310541 -15.34481821 -9.22873408 0 0 Z " fill="#00004D" transform="translate(935.1953125,5.3203125)"/>
</svg>
